<svg width="16" height="16" viewBox="0 0 16 16" fill="none" xmlns="http://www.w3.org/2000/svg">
<path d="M1.66797 12.3327C1.66797 11.9645 1.96645 11.666 2.33464 11.666H13.668C14.0362 11.666 14.3346 11.9645 14.3346 12.3327V13.9993C14.3346 14.3675 14.0362 14.666 13.668 14.666H2.33464C1.96645 14.666 1.66797 14.3675 1.66797 13.9993V12.3327Z" stroke="#0D99FF"/>
<path d="M1.66797 10.3327C1.66797 9.96448 1.96645 9.66602 2.33464 9.66602H13.668C14.0362 9.66602 14.3346 9.96448 14.3346 10.3327V13.9993C14.3346 14.3675 14.0362 14.666 13.668 14.666H2.33464C1.96645 14.666 1.66797 14.3675 1.66797 13.9993V10.3327Z" stroke="#0D99FF"/>
<path d="M6.25564 5.22123C6.303 5.08857 6.42867 5 6.56954 5H9.43307C9.57393 5 9.6996 5.08857 9.74697 5.22123L11.3346 9.66667H4.66797L6.25564 5.22123Z" stroke="#0D99FF" stroke-linecap="round" stroke-linejoin="round"/>
<path d="M9.2 1.33398H6.8C5.80589 1.33398 5 2.13987 5 3.13398C5 4.1281 5.80589 4.93398 6.8 4.93398H9.2C10.1941 4.93398 11 4.1281 11 3.13398C11 2.13987 10.1941 1.33398 9.2 1.33398Z" stroke="#0D99FF"/>
</svg>
