<svg width="16" height="16" viewBox="0 0 16 16" fill="none" xmlns="http://www.w3.org/2000/svg">
<g id="Frame">
<path id="Vector" d="M7.97813 15.0483C4.13359 15.0483 0.988281 11.8961 0.988281 8.04359C0.988281 4.19109 4.13359 1.03906 7.97813 1.03906C11.8227 1.03906 14.968 4.19109 14.968 8.04359C14.968 11.8961 11.8225 15.0483 7.97813 15.0483ZM10.2336 13.4172C11.6306 12.819 12.7426 11.7043 13.3375 10.3059C13.6401 9.59009 13.7961 8.82079 13.7961 8.04359C13.7961 7.2664 13.6401 6.4971 13.3375 5.78125C12.7427 4.38276 11.6307 3.2681 10.2336 2.67C9.52039 2.36706 8.75347 2.21093 7.97859 2.21093C7.20372 2.21093 6.43679 2.36706 5.72359 2.67C4.32608 3.26777 3.21364 4.3825 2.61875 5.78125C2.3161 6.4971 2.16016 7.2664 2.16016 8.04359C2.16016 8.82079 2.3161 9.59009 2.61875 10.3059C3.2136 11.7045 4.32584 12.8192 5.72312 13.417C6.43634 13.7199 7.20326 13.876 7.97813 13.876C8.75299 13.876 9.51991 13.7199 10.2331 13.417L10.2336 13.4172Z" fill="#5A9CF8"/>
<path id="Vector_2" d="M4.91029 10.3019L10.3683 4.84388C10.6445 4.56767 10.9207 4.56767 11.1969 4.84388C11.4731 5.12009 11.4731 5.39631 11.1969 5.67252L5.73893 11.1305C5.46271 11.4067 5.1865 11.4067 4.91029 11.1305C4.63407 10.8543 4.63407 10.5781 4.91029 10.3019Z" fill="#5A9CF8"/>
<path id="Vector_3" d="M10.3175 11.1813L4.8595 5.7233C4.58329 5.44709 4.58329 5.17087 4.8595 4.89466C5.13572 4.61845 5.41193 4.61845 5.68814 4.89466L11.1461 10.3526C11.4223 10.6289 11.4223 10.9051 11.1461 11.1813C10.8699 11.4575 10.5937 11.4575 10.3175 11.1813Z" fill="#5A9CF8"/>
</g>
</svg>
