<svg width="17" height="16" viewBox="0 0 17 16" fill="none" xmlns="http://www.w3.org/2000/svg">
<g clip-path="url(#clip0_163_127824)">
<path d="M9.67188 6.66699V11.3337" stroke="#5A9CF5" stroke-linecap="round" stroke-linejoin="round"/>
<path d="M7 6.66699V11.3337" stroke="#5A9CF5" stroke-linecap="round" stroke-linejoin="round"/>
<path d="M12.3359 4H4.33594V13.3333C4.33594 13.5101 4.40618 13.6797 4.5312 13.8047C4.65622 13.9298 4.82579 14 5.0026 14H11.6693C11.8461 14 12.0157 13.9298 12.1407 13.8047C12.2657 13.6797 12.3359 13.5101 12.3359 13.3333V4Z" stroke="#5A9CF5" stroke-linecap="round" stroke-linejoin="round"/>
<path d="M3 4H13.6667" stroke="#5A9CF5" stroke-linecap="round" stroke-linejoin="round"/>
<path d="M10.3385 2H6.33854C6.16173 2 5.99216 2.07024 5.86714 2.19526C5.74211 2.32029 5.67187 2.48986 5.67188 2.66667V4H11.0052V2.66667C11.0052 2.48986 10.935 2.32029 10.8099 2.19526C10.6849 2.07024 10.5154 2 10.3385 2V2Z" stroke="#5A9CF5" stroke-linecap="round" stroke-linejoin="round"/>
</g>
<defs>
<clipPath id="clip0_163_127824">
<rect width="16" height="16" fill="white" transform="translate(0.335938)"/>
</clipPath>
</defs>
</svg>
