<svg width="17" height="16" viewBox="0 0 17 16" fill="none" xmlns="http://www.w3.org/2000/svg">
<path d="M12.3385 14H4.33854C4.16173 14 3.99216 13.9298 3.86714 13.8047C3.74211 13.6797 3.67188 13.5101 3.67188 13.3333V2.66667C3.67188 2.48986 3.74211 2.32029 3.86714 2.19526C3.99216 2.07024 4.16173 2 4.33854 2H9.38054C9.4724 1.99993 9.56329 2.01884 9.64749 2.05555C9.7317 2.09226 9.80741 2.14598 9.86987 2.21333L12.8279 5.408C12.942 5.53136 13.0054 5.69327 13.0052 5.86133V13.3333C13.0052 13.5101 12.935 13.6797 12.8099 13.8047C12.6849 13.9298 12.5154 14 12.3385 14Z" stroke="#5A9CF5" stroke-linecap="round" stroke-linejoin="round"/>
<path d="M6.33594 11.333H10.3359" stroke="#5A9CF5" stroke-linecap="round" stroke-linejoin="round"/>
<path d="M6.33594 9.33301H10.3359" stroke="#5A9CF5" stroke-linecap="round" stroke-linejoin="round"/>
<path d="M13 6H9.66667C9.48986 6 9.32029 5.92976 9.19526 5.80474C9.07024 5.67971 9 5.51014 9 5.33333V2" stroke="#5A9CF5" stroke-linecap="round" stroke-linejoin="round"/>
</svg>
