<svg width="16" height="16" viewBox="0 0 16 16" fill="none" xmlns="http://www.w3.org/2000/svg">
<g clip-path="url(#clip0_1832_142894)">
<path d="M13.3307 9.33464V12.668C13.3307 12.8448 13.2605 13.0143 13.1355 13.1394C13.0104 13.2644 12.8409 13.3346 12.6641 13.3346H3.33073C3.15392 13.3346 2.98435 13.2644 2.85932 13.1394C2.7343 13.0143 2.66406 12.8448 2.66406 12.668V3.33464C2.66406 3.15782 2.7343 2.98826 2.85932 2.86323C2.98435 2.73821 3.15392 2.66797 3.33073 2.66797H6.66406" stroke="#26292E" stroke-linecap="round" stroke-linejoin="round"/>
<path d="M6.66406 9.33203H8.66406L14.6641 3.33203L12.6641 1.33203L6.66406 7.33203V9.33203Z" stroke="#26292E" stroke-linecap="round" stroke-linejoin="round"/>
<path d="M10.6641 3.33203L12.6641 5.33203" stroke="#26292E" stroke-linecap="round" stroke-linejoin="round"/>
</g>
<defs>
<clipPath id="clip0_1832_142894">
<rect width="16" height="16" fill="white"/>
</clipPath>
</defs>
</svg>
