<svg width="16" height="16" viewBox="0 0 16 16" fill="none" xmlns="http://www.w3.org/2000/svg">
<g clip-path="url(#clip0_1832_143008)">
<path d="M8 8V12" stroke="#26292E" stroke-linecap="round" stroke-linejoin="round"/>
<path d="M10 10.668L8 12.0013L6 10.668" stroke="#26292E" stroke-linecap="round" stroke-linejoin="round"/>
<path d="M12.0026 14H4.0026C3.82579 14 3.65622 13.9298 3.5312 13.8047C3.40618 13.6797 3.33594 13.5101 3.33594 13.3333V2.66667C3.33594 2.48986 3.40618 2.32029 3.5312 2.19526C3.65622 2.07024 3.82579 2 4.0026 2H9.0446C9.13646 1.99993 9.22735 2.01884 9.31156 2.05555C9.39576 2.09226 9.47147 2.14598 9.53394 2.21333L12.4919 5.408C12.6061 5.53136 12.6694 5.69327 12.6693 5.86133V13.3333C12.6693 13.5101 12.599 13.6797 12.474 13.8047C12.349 13.9298 12.1794 14 12.0026 14Z" stroke="#26292E" stroke-linecap="round" stroke-linejoin="round"/>
<path d="M12.6641 6H9.33073C9.15392 6 8.98435 5.92976 8.85932 5.80474C8.7343 5.67971 8.66406 5.51014 8.66406 5.33333V2" stroke="#26292E" stroke-linecap="round" stroke-linejoin="round"/>
</g>
<defs>
<clipPath id="clip0_1832_143008">
<rect width="16" height="16" fill="white"/>
</clipPath>
</defs>
</svg>
