<svg width="16" height="16" viewBox="0 0 16 16" fill="none" xmlns="http://www.w3.org/2000/svg">
<path d="M6.33333 6.66667C7.622 6.66667 8.66667 5.622 8.66667 4.33333C8.66667 3.04467 7.622 2 6.33333 2C5.04467 2 4 3.04467 4 4.33333C4 5.622 5.04467 6.66667 6.33333 6.66667Z" stroke="#0D99FF" stroke-linecap="round" stroke-linejoin="round"/>
<path d="M13.9987 5L11.332 7.66667" stroke="#0D99FF" stroke-linecap="round" stroke-linejoin="round"/>
<path d="M11.332 5L13.9987 7.66667" stroke="#0D99FF" stroke-linecap="round" stroke-linejoin="round"/>
<path d="M1.33203 13.6007V14.0007H11.332V13.6007C11.332 12.1072 11.332 11.3605 11.0414 10.79C10.7857 10.2883 10.3778 9.88028 9.876 9.62462C9.30557 9.33398 8.55883 9.33398 7.06537 9.33398H5.5987C4.10523 9.33398 3.3585 9.33398 2.78806 9.62462C2.28629 9.88028 1.87834 10.2883 1.62268 10.79C1.33203 11.3605 1.33203 12.1072 1.33203 13.6007Z" stroke="#0D99FF" stroke-linecap="round" stroke-linejoin="round"/>
</svg>
