<svg width="16" height="16" viewBox="0 0 16 16" fill="none" xmlns="http://www.w3.org/2000/svg">
<g id="Frame">
<g id="Union">
<path fill-rule="evenodd" clip-rule="evenodd" d="M7.9987 14.6654C4.33203 14.6654 1.33203 11.6654 1.33203 7.9987C1.33203 4.33203 4.33203 1.33203 7.9987 1.33203C11.6654 1.33203 14.6654 4.33203 14.6654 7.9987C14.6654 11.6654 11.6654 14.6654 7.9987 14.6654ZM7.9987 2.33203C4.86536 2.33203 2.33203 4.86536 2.33203 7.9987C2.33203 11.132 4.86536 13.6654 7.9987 13.6654C11.132 13.6654 13.6654 11.132 13.6654 7.9987C13.6654 4.86536 11.132 2.33203 7.9987 2.33203ZM6.73229 10.0672L4.66563 8.00052C4.46563 7.80052 4.46563 7.46719 4.66563 7.26719C4.86562 7.06719 5.19896 7.06719 5.39896 7.26719L7.26602 9.13424L10.6018 5.79844C10.8018 5.59844 11.0685 5.59844 11.2685 5.79844L11.3352 5.8651C11.4685 5.99844 11.4685 6.33177 11.3352 6.53177L7.66849 10.1984C7.47255 10.3944 7.21264 10.3984 7.0141 10.2104C6.91035 10.1936 6.811 10.1459 6.73229 10.0672Z" fill="#5A9CF8"/>
<path d="M4.66563 8.00052L4.59491 8.07123L4.66563 8.00052ZM4.66563 7.26719L4.73634 7.3379L4.66563 7.26719ZM5.39896 7.26719L5.32825 7.3379L5.39896 7.26719ZM7.26602 9.13424L7.1953 9.20495L7.26602 9.27567L7.33673 9.20495L7.26602 9.13424ZM10.6018 5.79844L10.6725 5.86915H10.6725L10.6018 5.79844ZM11.2685 5.79844L11.3392 5.72773L11.3392 5.72773L11.2685 5.79844ZM11.3352 5.8651L11.2644 5.93581L11.2644 5.93582L11.3352 5.8651ZM11.3352 6.53177L11.4059 6.60248L11.4129 6.59548L11.4184 6.58724L11.3352 6.53177ZM7.66849 10.1984L7.59778 10.1277V10.1277L7.66849 10.1984ZM7.0141 10.2104L7.08285 10.1378L7.06047 10.1166L7.03005 10.1117L7.0141 10.2104ZM1.23203 7.9987C1.23203 11.7206 4.2768 14.7654 7.9987 14.7654V14.5654C4.38726 14.5654 1.43203 11.6101 1.43203 7.9987H1.23203ZM7.9987 1.23203C4.2768 1.23203 1.23203 4.2768 1.23203 7.9987H1.43203C1.43203 4.38726 4.38726 1.43203 7.9987 1.43203V1.23203ZM14.7654 7.9987C14.7654 4.2768 11.7206 1.23203 7.9987 1.23203V1.43203C11.6101 1.43203 14.5654 4.38726 14.5654 7.9987H14.7654ZM7.9987 14.7654C11.7206 14.7654 14.7654 11.7206 14.7654 7.9987H14.5654C14.5654 11.6101 11.6101 14.5654 7.9987 14.5654V14.7654ZM2.43203 7.9987C2.43203 4.92059 4.92059 2.43203 7.9987 2.43203V2.23203C4.81014 2.23203 2.23203 4.81014 2.23203 7.9987H2.43203ZM7.9987 13.5654C4.92059 13.5654 2.43203 11.0768 2.43203 7.9987H2.23203C2.23203 11.1873 4.81014 13.7654 7.9987 13.7654V13.5654ZM13.5654 7.9987C13.5654 11.0768 11.0768 13.5654 7.9987 13.5654V13.7654C11.1873 13.7654 13.7654 11.1873 13.7654 7.9987H13.5654ZM7.9987 2.43203C11.0768 2.43203 13.5654 4.92059 13.5654 7.9987H13.7654C13.7654 4.81014 11.1873 2.23203 7.9987 2.23203V2.43203ZM4.59491 8.07123L6.66158 10.1379L6.803 9.99648L4.73634 7.92981L4.59491 8.07123ZM4.59491 7.19648C4.35586 7.43553 4.35586 7.83218 4.59491 8.07123L4.73634 7.92981C4.57539 7.76886 4.57539 7.49885 4.73634 7.3379L4.59491 7.19648ZM5.46967 7.19648C5.23062 6.95742 4.83397 6.95742 4.59491 7.19648L4.73634 7.3379C4.89728 7.17695 5.1673 7.17695 5.32825 7.3379L5.46967 7.19648ZM7.33673 9.06353L5.46967 7.19648L5.32825 7.3379L7.1953 9.20495L7.33673 9.06353ZM7.33673 9.20495L10.6725 5.86915L10.5311 5.72773L7.1953 9.06353L7.33673 9.20495ZM10.6725 5.86915C10.7565 5.78522 10.8486 5.74844 10.9352 5.74844C11.0217 5.74844 11.1138 5.78522 11.1978 5.86915L11.3392 5.72773C11.2231 5.61166 11.0819 5.54844 10.9352 5.54844C10.7884 5.54844 10.6472 5.61166 10.5311 5.72773L10.6725 5.86915ZM11.1978 5.86915L11.2644 5.93581L11.4059 5.79439L11.3392 5.72773L11.1978 5.86915ZM11.2644 5.93582C11.3043 5.97566 11.3352 6.06081 11.3352 6.17344C11.3352 6.28296 11.3055 6.39595 11.252 6.4763L11.4184 6.58724C11.4981 6.46759 11.5352 6.31392 11.5352 6.17344C11.5352 6.03607 11.4994 5.88788 11.4059 5.79439L11.2644 5.93582ZM11.2644 6.46106L7.59778 10.1277L7.7392 10.2691L11.4059 6.60248L11.2644 6.46106ZM7.59778 10.1277C7.51553 10.21 7.42543 10.2469 7.34053 10.2484C7.2557 10.2499 7.16564 10.2161 7.08285 10.1378L6.94535 10.283C7.0611 10.3926 7.20026 10.4509 7.34401 10.4484C7.48769 10.4459 7.62552 10.3828 7.7392 10.2691L7.59778 10.1277ZM6.66158 10.1379C6.75597 10.2323 6.87484 10.2892 6.99815 10.3091L7.03005 10.1117C6.94586 10.0981 6.86603 10.0595 6.803 9.99648L6.66158 10.1379Z" fill="#5A9CF8"/>
</g>
</g>
</svg>
