<svg width="18" height="18" viewBox="0 0 18 18" fill="none" xmlns="http://www.w3.org/2000/svg">
<g clip-path="url(#clip0_6369_174706)">
<path d="M3.75 15.75H14.25C14.4489 15.75 14.6397 15.671 14.7803 15.5303C14.921 15.3897 15 15.1989 15 15V7.5C15 7.30109 14.921 7.11032 14.7803 6.96967C14.6397 6.82902 14.4489 6.75 14.25 6.75H3.75C3.55109 6.75 3.36032 6.82902 3.21967 6.96967C3.07902 7.11032 3 7.30109 3 7.5V15C3 15.1989 3.07902 15.3897 3.21967 15.5303C3.36032 15.671 3.55109 15.75 3.75 15.75Z" stroke="#0D99FF" stroke-linecap="round" stroke-linejoin="round"/>
<path d="M6.9225 6.75H11.0775C11.1233 6.75 11.1671 6.73183 11.1995 6.69948C11.2318 6.66713 11.25 6.62325 11.25 6.5775V4.5C11.25 3.90326 11.0129 3.33097 10.591 2.90901C10.169 2.48705 9.59674 2.25 9 2.25C8.40326 2.25 7.83097 2.48705 7.40901 2.90901C6.98705 3.33097 6.75 3.90326 6.75 4.5V6.5775C6.75 6.67275 6.82725 6.75 6.9225 6.75Z" stroke="#0D99FF" stroke-linecap="round" stroke-linejoin="round"/>
</g>
<defs>
<clipPath id="clip0_6369_174706">
<rect width="18" height="18" fill="white"/>
</clipPath>
</defs>
</svg>
